# xmcd
#
# Track frame offsets:
#	150
#	17843
#	34845
#	50072
#	64455
#	83602
#	100275
#	118199
#	133275
#	148941
#
# Disc length: 2212 seconds
#
# Revision: 1
# Processed by: cddbd v1.5.2PL0 Copyright (c) Steve Scherf et al.
# Submitted via: EZCDAudioConverter 4.0.2.1
#
DISCID=9908a20a
DTITLE=Vilma Alina - Ufoja
DYEAR=2016
DGENRE=
TTITLE0=Vilma Alina - Ufoja
TTITLE1=Vilma Alina - Tulevaisuuden lupauksii
TTITLE2=Vilma Alina - Akat
TTITLE3=Vilma Alina - Ota mut niin
TTITLE4=Vilma Alina - Joku muu
TTITLE5=Vilma Alina - Ajan pois
TTITLE6=Vilma Alina - Hullut asuu Kallios
TTITLE7=Vilma Alina feat. Teflon Brothers - Juha88 (mukana Teflon Brothers)
TTITLE8=Vilma Alina - Läähätän
TTITLE9=Vilma Alina - Älä jahtaa lentokoneita
EXTD=
EXTT0=
EXTT1=
EXTT2=
EXTT3=
EXTT4=
EXTT5=
EXTT6=
EXTT7=
EXTT8=
EXTT9=
PLAYORDER=
